<?xml version="1.0" encoding="utf-8"?>
<!-- Generator: Adobe Illustrator 16.0.0, SVG Export Plug-In . SVG Version: 6.00 Build 0)  -->
<!DOCTYPE svg PUBLIC "-//W3C//DTD SVG 1.1//EN" "http://www.w3.org/Graphics/SVG/1.1/DTD/svg11.dtd">
<svg version="1.1" id="Layer_1" xmlns="http://www.w3.org/2000/svg" xmlns:xlink="http://www.w3.org/1999/xlink" x="0px" y="0px"
	 width="140px" height="140px" viewBox="0 0 140 140" enable-background="new 0 0 140 140" xml:space="preserve">
<path display="none" fill="#EE8803" d="M52.417,107.027c-1.523,0-2.955-0.594-4.032-1.672s-1.671-2.512-1.671-4.036
	s0.594-2.958,1.671-4.036l3.462-3.465l-0.892-3.763l-15.188-7.752c-0.854-0.436-1.336-1.301-1.258-2.256
	c0.078-0.956,0.694-1.73,1.606-2.021l18.845-6.011l6.812-14.288c0.445-0.936,1.395-1.445,2.422-1.297
	c1.025,0.147,1.794,0.904,1.959,1.928l1.515,9.339l25.856-25.495c-0.104-0.279-0.152-0.579-0.139-0.882
	c0.028-0.626,0.317-1.217,0.794-1.622l-0.406-0.406c-0.271-0.271-0.271-0.71,0-0.981c0.271-0.271,0.709-0.271,0.98,0l0.492,0.493
	l1.659-1.392l-0.442-0.444c-0.271-0.271-0.271-0.71,0-0.98c0.271-0.271,0.709-0.271,0.98,0l0.528,0.529l1.597-1.339l-0.458-0.458
	c-0.271-0.271-0.271-0.71,0-0.981c0.271-0.271,0.709-0.271,0.98,0l0.568,0.569c1.162-0.71,2.665-0.549,3.658,0.444
	c0.992,0.994,1.153,2.499,0.444,3.662l0.56,0.56c0.271,0.271,0.271,0.71,0,0.98c-0.271,0.271-0.71,0.271-0.98,0l-0.449-0.449
	l-1.337,1.598l0.601,0.602c0.271,0.271,0.271,0.71,0,0.981c-0.271,0.271-0.71,0.271-0.98,0l-0.515-0.516l-1.391,1.661l0.576,0.576
	c0.271,0.271,0.271,0.71,0,0.98c-0.271,0.271-0.71,0.271-0.98,0l-0.489-0.489c-0.405,0.478-0.995,0.767-1.621,0.795
	c-0.346,0.014-0.684-0.05-0.993-0.184L69.439,73.268l4.383,2.423c0.774,0.428,1.233,1.243,1.196,2.128s-0.562,1.658-1.369,2.021
	l-8.202,3.674l-8.355,14.974c-0.47,0.842-1.391,1.3-2.344,1.166c-0.954-0.133-1.714-0.824-1.937-1.763l-0.589-2.485l-2.857,2.86
	c-0.816,0.815-1.265,1.9-1.265,3.055c0,1.153,0.449,2.238,1.265,3.055c0.814,0.816,1.898,1.266,3.052,1.266s2.237-0.449,3.053-1.266
	l30.718-30.745c2.353-2.354,6.18-2.354,8.532,0s2.353,6.185,0,8.539L79.823,97.077c-0.271,0.271-0.709,0.271-0.979,0
	c-0.271-0.271-0.271-0.71,0-0.981l14.896-14.909c1.812-1.813,1.812-4.764,0-6.576c-1.812-1.813-4.76-1.813-6.571,0l-30.719,30.745
	C55.372,106.434,53.94,107.027,52.417,107.027z M63.855,57.793c-0.301,0-0.646,0.138-0.834,0.532l-6.939,14.559
	c-0.082,0.173-0.232,0.304-0.415,0.362l-19.131,6.102c-0.552,0.176-0.634,0.667-0.646,0.813c-0.012,0.146-0.011,0.644,0.506,0.906
	l15.475,7.898c0.181,0.093,0.313,0.26,0.359,0.458l1.93,8.146c0.137,0.576,0.63,0.688,0.778,0.709
	c0.147,0.021,0.654,0.048,0.942-0.47l8.469-15.175c0.072-0.131,0.186-0.233,0.321-0.295l8.412-3.768
	c0.329-0.147,0.535-0.451,0.551-0.813c0.015-0.361-0.165-0.681-0.481-0.855l-4.723-2.61l-4.671,4.745
	c-0.13,0.132-0.307,0.206-0.491,0.207c-0.001,0-0.002,0-0.003,0c-0.184,0-0.36-0.073-0.49-0.203l-2.788-2.791
	c-0.131-0.131-0.204-0.309-0.203-0.493s0.075-0.361,0.207-0.491l0.157-0.155c0.024-0.037,0.054-0.072,0.086-0.104l6.228-6.145
	l-0.381-2.221l-1.297-8.064c-0.08-0.5-0.459-0.729-0.787-0.775C63.951,57.797,63.904,57.793,63.855,57.793z M61.714,75.515
	l1.792,1.794l4.301-4.366c0.021-0.021,0.042-0.04,0.064-0.058l27.798-28.242l-1.313-1.313L61.714,75.515z M95.536,40.37
	l-0.455,0.382c-0.189,0.159-0.3,0.383-0.311,0.629c-0.011,0.247,0.079,0.479,0.254,0.654l2.016,2.018
	c0.175,0.175,0.406,0.267,0.653,0.254c0.247-0.011,0.47-0.121,0.629-0.311l5.108-6.102c0.537-0.641,0.496-1.569-0.094-2.161
	c-0.591-0.591-1.52-0.632-2.16-0.095l-5.411,4.539c-0.019,0.023-0.038,0.046-0.06,0.067C95.654,40.297,95.598,40.339,95.536,40.37z
	 M55.882,90.864c-0.529,0-1.026-0.206-1.4-0.581c-0.374-0.374-0.581-0.872-0.581-1.402c0-0.529,0.207-1.027,0.581-1.402
	s0.871-0.581,1.4-0.581s1.027,0.207,1.401,0.581c0.374,0.375,0.581,0.873,0.581,1.402c0,0.53-0.207,1.028-0.581,1.402
	C56.909,90.658,56.412,90.864,55.882,90.864z M55.882,88.285c-0.158,0-0.309,0.063-0.421,0.175s-0.174,0.262-0.174,0.421
	s0.062,0.309,0.174,0.421c0.225,0.226,0.617,0.225,0.843,0c0.112-0.112,0.174-0.262,0.174-0.421s-0.062-0.309-0.174-0.421
	S56.041,88.285,55.882,88.285z M47.753,85.511c-0.106,0-0.213-0.024-0.314-0.076l-7.227-3.688c-0.452-0.231-0.718-0.707-0.677-1.214
	c0.042-0.507,0.381-0.935,0.865-1.089l6.982-2.227c0.367-0.116,0.756,0.085,0.871,0.45c0.116,0.365-0.085,0.755-0.449,0.871
	l-6.663,2.125l6.927,3.535c0.341,0.174,0.477,0.592,0.303,0.933C48.249,85.372,48.006,85.511,47.753,85.511z M59.516,85.511
	c-0.178,0-0.354-0.068-0.49-0.204l-5.853-5.857c-0.271-0.271-0.271-0.71,0-0.98c0.271-0.271,0.71-0.271,0.98,0l5.853,5.857
	c0.271,0.271,0.271,0.71,0,0.98C59.87,85.442,59.693,85.511,59.516,85.511z"/>
<path display="none" fill="#EE8803" d="M34.063,107.055c-0.193,0-0.386-0.073-0.534-0.221c-0.294-0.296-0.294-0.774,0-1.069
	l11.577-11.588c-0.494-0.547-0.948-1.13-1.361-1.749c-3.663-5.482-3.49-12.562,0.428-17.622c0.139-0.18,0.282-0.356,0.429-0.53
	l3.691-4.363c0.229-0.271,0.617-0.346,0.932-0.178l1.202,0.642c1.047,0.559,2.319,0.509,3.318-0.131l2.778-1.778
	c0.403-0.258,0.536-0.793,0.3-1.217l-0.607-1.094c-0.164-0.295-0.113-0.663,0.126-0.901l2.965-2.968
	c3.273-3.276,7.919-4.603,12.427-3.549l4.541,1.063l17.259-17.275c-0.198-0.925,0.06-1.93,0.776-2.647l0.338-0.337l-1.429-1.43
	c-0.295-0.296-0.295-0.773,0-1.069c0.295-0.295,0.772-0.295,1.067,0l1.428,1.43l2.182-2.183l-1.428-1.431
	c-0.295-0.295-0.295-0.773,0-1.068s0.772-0.295,1.067,0l1.429,1.43l0.076-0.076c1.121-1.122,2.947-1.124,4.069,0l2.039,2.041
	c1.122,1.123,1.122,2.95,0,4.072l-0.077,0.077l1.429,1.43c0.295,0.295,0.295,0.773,0,1.068c-0.295,0.296-0.772,0.296-1.067,0
	l-1.429-1.43l-2.181,2.184l1.428,1.43c0.295,0.296,0.295,0.773,0,1.069c-0.295,0.295-0.772,0.295-1.067,0l-1.429-1.43l-0.337,0.337
	l0,0c-0.717,0.718-1.72,0.978-2.645,0.777L80.514,64.046l1.063,4.546c1.053,4.512-0.272,9.162-3.545,12.438l-2.966,2.969
	c-0.238,0.237-0.604,0.291-0.9,0.126l-1.093-0.607c-0.424-0.234-0.957-0.104-1.215,0.3l-1.777,2.781
	c-0.639,0.999-0.689,2.272-0.13,3.321l0.641,1.203c0.167,0.313,0.093,0.702-0.178,0.933l-4.359,3.695
	c-0.378,0.32-0.771,0.622-1.168,0.898c-4.957,3.45-11.774,3.435-16.965-0.041c-0.619-0.414-1.202-0.87-1.748-1.363l-11.576,11.589
	C34.449,106.981,34.255,107.055,34.063,107.055z M49.05,71.354l-3.298,3.898c-0.134,0.157-0.262,0.316-0.387,0.479
	c-3.519,4.545-3.668,10.915-0.371,15.85c1.005,1.503,2.271,2.77,3.767,3.771c4.679,3.133,10.813,3.156,15.264,0.058
	c0.357-0.249,0.713-0.522,1.054-0.812l3.894-3.302l-0.354-0.664l0,0c-0.815-1.531-0.743-3.388,0.19-4.848l1.776-2.78
	c0.686-1.074,2.101-1.43,3.22-0.808l0.596,0.331l2.563-2.565c2.901-2.904,4.076-7.026,3.142-11.026l-0.848-3.632L55.635,88.95
	l0.587,0.588c0.295,0.295,0.295,0.773,0,1.068s-0.773,0.295-1.068,0l-1.115-1.115c-0.001-0.002-0.004-0.005-0.006-0.007
	c-0.002-0.002-0.004-0.005-0.006-0.007l-3.154-3.156c-0.004-0.005-0.008-0.008-0.013-0.013c-0.004-0.004-0.008-0.009-0.012-0.013
	l-1.108-1.109c-0.295-0.296-0.295-0.773,0-1.068c0.295-0.296,0.772-0.296,1.067,0l0.587,0.587L75.018,61.06l-3.629-0.849
	c-3.995-0.935-8.113,0.24-11.015,3.145l-2.563,2.565l0.331,0.597c0.622,1.119,0.268,2.536-0.806,3.223l-2.778,1.778
	c-1.458,0.935-3.313,1.007-4.842,0.19L49.05,71.354z M54.048,87.362l0.519,0.52l17.238-17.255l-0.52-0.519L54.048,87.362z
	 M52.462,85.774l0.519,0.519l17.237-17.254l-0.519-0.52L52.462,85.774z M72.354,69.039l0.409,0.41l6.346-6.352
	c0.001-0.001,0.001-0.001,0.001-0.001l17.162-17.18l-0.409-0.41L72.354,69.039z M70.875,67.561l0.41,0.41l23.51-23.532l-0.41-0.41
	l-17.162,17.18c-0.001,0-0.002,0-0.002,0.001L70.875,67.561z M96.398,43.906l1.017,1.019c0.533,0.533,1.401,0.533,1.935,0
	l0.857-0.859c0.004-0.005,0.008-0.008,0.013-0.013s0.009-0.009,0.013-0.013l3.231-3.234c0.002-0.002,0.003-0.004,0.005-0.006
	s0.004-0.003,0.006-0.005l0.605-0.606c0.532-0.533,0.532-1.401,0-1.936l-2.039-2.041c-0.533-0.533-1.401-0.533-1.934,0l-0.605,0.606
	c-0.002,0.001-0.004,0.003-0.006,0.005s-0.004,0.003-0.006,0.005l-3.23,3.234c-0.005,0.005-0.009,0.009-0.014,0.014
	c-0.004,0.004-0.008,0.008-0.012,0.013l-0.858,0.858c-0.533,0.534-0.533,1.402,0,1.936l1.018,1.019
	c0.001,0.001,0.001,0.002,0.002,0.003C96.396,43.904,96.397,43.905,96.398,43.906z M64.245,92.519c-0.15,0-0.301-0.017-0.45-0.051
	c-0.549-0.124-1.028-0.475-1.313-0.961c-0.877-1.493-0.7-3.369,0.443-4.67l2.135-2.432c0.543-0.618,0.746-1.464,0.542-2.261
	c-0.032-0.127-0.128-0.171-0.183-0.186c-0.054-0.016-0.159-0.026-0.252,0.066c-0.295,0.295-0.773,0.295-1.067,0
	c-0.295-0.295-0.295-0.773,0-1.068c0.455-0.456,1.098-0.625,1.719-0.456c0.621,0.17,1.087,0.645,1.247,1.27
	c0.327,1.281,0.001,2.64-0.871,3.633l-2.135,2.432c-0.711,0.81-0.822,1.977-0.276,2.906c0.076,0.13,0.199,0.22,0.346,0.253
	c0.147,0.034,0.296,0.005,0.421-0.08l0.605-0.409c0.347-0.233,0.815-0.142,1.048,0.203c0.233,0.346,0.143,0.816-0.203,1.05
	l-0.605,0.409C65.054,92.397,64.651,92.519,64.245,92.519z M50.867,78.407c-0.696,0-1.396-0.183-2.027-0.555
	c-0.486-0.286-0.836-0.766-0.96-1.315s-0.015-1.134,0.301-1.601l0.409-0.606c0.233-0.345,0.702-0.436,1.048-0.203
	c0.346,0.233,0.436,0.704,0.203,1.05l-0.409,0.605c-0.084,0.125-0.112,0.274-0.079,0.421c0.033,0.147,0.123,0.271,0.253,0.348
	c0.928,0.547,2.095,0.435,2.903-0.276l2.429-2.138c0.992-0.874,2.349-1.2,3.629-0.872c0.624,0.16,1.098,0.626,1.268,1.248
	s0,1.265-0.456,1.721c-0.295,0.295-0.773,0.295-1.067,0c-0.295-0.295-0.295-0.773,0-1.068c0.093-0.093,0.082-0.198,0.067-0.253
	s-0.059-0.15-0.187-0.183c-0.796-0.204-1.641-0.002-2.257,0.542l-2.43,2.138C52.756,78.068,51.816,78.407,50.867,78.407z"/>
<path display="none" fill="#EE8803" d="M53.653,106.995c-0.05,0-0.099,0-0.148-0.001c-5.2-0.038-10.06-2.115-13.685-5.848
	c-7.147-7.357-7.175-19.355-0.062-26.744c3.541-3.679,8.299-5.776,13.398-5.906c1.776-0.045,3.352-1.111,4.111-2.782
	c0.467-1.027,1.112-1.956,1.917-2.761l0.123-0.123c3.675-3.673,9.654-3.673,13.328-0.001l0.368,0.368L92.98,43.235l-0.666-0.666
	c-0.149-0.149-0.229-0.354-0.218-0.565s0.11-0.408,0.274-0.542l1.153-0.94l-0.999-0.998c-0.293-0.292-0.293-0.766,0-1.058
	c0.292-0.292,0.766-0.292,1.058,0l1.106,1.105l1.643-1.34l-1.019-1.018c-0.292-0.292-0.292-0.766,0-1.058s0.767-0.292,1.058,0
	l1.127,1.125l1.643-1.34l-1.039-1.037c-0.291-0.292-0.291-0.766,0-1.058c0.293-0.292,0.766-0.292,1.059,0l1.146,1.146
	c1.178-0.895,2.829-0.788,3.883,0.265l1.98,1.979c1.055,1.053,1.161,2.703,0.266,3.88l1.277,1.276c0.292,0.292,0.292,0.765,0,1.058
	c-0.292,0.292-0.766,0.291-1.059,0l-1.168-1.168l-1.341,1.642l1.256,1.255c0.292,0.292,0.292,0.766,0,1.057
	c-0.292,0.292-0.766,0.292-1.058,0l-1.148-1.147l-1.342,1.643l1.236,1.234c0.292,0.292,0.292,0.766,0,1.057
	c-0.292,0.292-0.766,0.292-1.058,0l-1.128-1.127l-0.941,1.152c-0.135,0.164-0.331,0.264-0.543,0.274
	c-0.211,0.011-0.416-0.068-0.566-0.218l-0.666-0.666L78.211,68.4l0.369,0.369c1.779,1.778,2.76,4.143,2.76,6.658
	s-0.98,4.881-2.76,6.66l-0.125,0.123c-0.805,0.805-1.733,1.449-2.762,1.916c-1.675,0.76-2.741,2.324-2.784,4.083
	c-0.12,4.964-2.121,9.633-5.637,13.146C63.63,104.995,58.798,106.994,53.653,106.995z M65.972,61.569
	c-2.031,0-4.061,0.772-5.606,2.317l-0.124,0.123c-0.678,0.678-1.221,1.459-1.613,2.322c-0.999,2.196-3.081,3.599-5.435,3.659
	c-4.704,0.119-9.092,2.054-12.358,5.447c-6.56,6.815-6.535,17.881,0.058,24.667c3.343,3.442,7.826,5.358,12.622,5.395
	c4.799,0.024,9.308-1.812,12.699-5.201c3.242-3.24,5.088-7.547,5.2-12.126c0.056-2.336,1.459-4.408,3.66-5.407
	c0.864-0.393,1.646-0.935,2.323-1.612l0.124-0.123c1.497-1.496,2.322-3.486,2.322-5.603s-0.825-4.105-2.322-5.602l0,0l-0.369-0.369
	l-7.619,7.614c-0.002,0.002-0.004,0.004-0.006,0.006l-5.533,5.528c0.074,0.396,0.111,0.8,0.111,1.21c0,1.742-0.679,3.38-1.912,4.612
	s-2.873,1.91-4.616,1.91c-0.411,0-0.815-0.037-1.21-0.11l-2.918,2.915l1.888,1.887c0.292,0.292,0.292,0.766,0,1.058
	s-0.766,0.292-1.058,0l-4.484-4.48c-0.002-0.003-0.005-0.005-0.007-0.008c-0.002-0.002-0.005-0.005-0.007-0.007l-2.056-2.055
	c-0.004-0.003-0.008-0.007-0.011-0.011c-0.004-0.004-0.008-0.008-0.011-0.012l-2.555-2.553c-0.292-0.292-0.292-0.765,0-1.057
	c0.292-0.292,0.766-0.292,1.058,0l2.037,2.035l2.918-2.916c-0.074-0.395-0.111-0.799-0.111-1.209c0-1.742,0.679-3.381,1.912-4.613
	c1.233-1.231,2.872-1.91,4.616-1.91c0.41,0,0.815,0.038,1.209,0.111l5.529-5.524c0.003-0.004,0.006-0.007,0.009-0.01l7.619-7.614
	l-0.367-0.368C70.033,62.342,68.002,61.569,65.972,61.569z M51.376,91.07l1.017,1.016l2.379-2.378
	c-0.442-0.21-0.861-0.473-1.25-0.781L51.376,91.07z M49.303,88.997l1.016,1.016l2.145-2.144c-0.31-0.389-0.571-0.807-0.782-1.249
	L49.303,88.997z M62.608,83.992l-4.851,4.848c1.277-0.044,2.472-0.562,3.38-1.47C62.045,86.463,62.564,85.269,62.608,83.992z
	 M54.589,87.86c0.407,0.302,0.854,0.538,1.329,0.703l6.414-6.409c-0.166-0.474-0.402-0.92-0.705-1.327L54.589,87.86z M52.827,85.476
	c0.166,0.474,0.402,0.92,0.705,1.327l7.038-7.033c-0.413-0.305-0.862-0.538-1.331-0.701L52.827,85.476z M57.398,78.792
	c-1.228,0.044-2.442,0.533-3.377,1.468c-0.908,0.907-1.426,2.101-1.471,3.378L57.398,78.792z M62.694,79.761
	c0.31,0.389,0.572,0.808,0.783,1.249l4.47-4.467l-1.017-1.016L62.694,79.761z M60.386,77.922c0.442,0.211,0.861,0.473,1.25,0.781
	l4.236-4.232l-1.017-1.016L60.386,77.922z M67.989,74.47l1.017,1.016l28.124-28.104l-1.016-1.015L67.989,74.47z M65.915,72.397
	l1.016,1.016l28.124-28.104l-1.016-1.016L65.915,72.397z M96.643,44.78l2.684,2.682l5.885-7.208c0.478-0.584,0.436-1.427-0.099-1.96
	l-1.98-1.979c-0.533-0.533-1.377-0.575-1.961-0.099l-7.214,5.881L96.643,44.78z M53.67,103.099c-8.567,0-15.538-6.966-15.538-15.526
	c0-8.562,6.97-15.527,15.538-15.527c0.413,0,0.748,0.335,0.748,0.748c0,0.412-0.335,0.747-0.748,0.747
	c-7.742,0-14.042,6.295-14.042,14.032c0,7.736,6.299,14.031,14.042,14.031c0.413,0,0.748,0.335,0.748,0.747
	C54.418,102.764,54.083,103.099,53.67,103.099z"/>
<path fill="#EE8803" d="M69.971,105.14c-15.154,0-27.869-10.629-31.07-24.817c-3.239-0.724-5.621-3.646-5.621-7.002
	s2.382-6.278,5.621-7.002c0.731-3.24,1.958-6.296,3.598-9.081c-0.809-1.189-1.234-2.568-1.234-4.016c0-3.96,3.225-7.183,7.188-7.183
	c1.28,0,2.521,0.336,3.617,0.977c3.265-2.226,6.963-3.86,10.94-4.75c0.802-3.161,3.653-5.405,6.96-5.405
	c3.307,0,6.159,2.245,6.96,5.406c4.028,0.9,7.771,2.566,11.066,4.835c1.132-0.696,2.418-1.063,3.753-1.063
	c3.963,0,7.188,3.223,7.188,7.183c0,1.518-0.485,2.998-1.376,4.221c1.577,2.726,2.761,5.706,3.476,8.861
	c3.274,0.699,5.684,3.627,5.684,7.017s-2.409,6.317-5.684,7.017C97.83,94.518,85.117,105.14,69.971,105.14z M40.192,79.22
	c2.756,13.909,15.061,24.429,29.778,24.429c14.774,0,27.116-10.601,29.809-24.588c0.361-1.889,0.545-3.816,0.545-5.739
	c0-1.925-0.184-3.854-0.546-5.742c-2.427-12.603-12.687-22.455-25.5-24.281c-2.88-0.409-5.831-0.405-8.709,0.013
	c-12.716,1.854-22.9,11.614-25.376,24.109c-0.382,1.938-0.576,3.922-0.576,5.901C39.617,75.3,39.811,77.282,40.192,79.22z
	 M101.817,73.32c0,1.835-0.156,3.633-0.456,5.383c2.264-0.77,3.866-2.922,3.866-5.383s-1.603-4.613-3.866-5.383
	C101.661,69.688,101.817,71.486,101.817,73.32z M38.576,67.961c-2.229,0.789-3.803,2.932-3.803,5.359
	c0,2.429,1.574,4.57,3.803,5.359c-0.297-1.742-0.452-3.533-0.452-5.359C38.124,71.495,38.279,69.704,38.576,67.961z M89.338,48.069
	c2.909,2.228,5.38,4.896,7.364,7.957c0.483-0.851,0.743-1.817,0.743-2.805c0-3.138-2.555-5.69-5.695-5.69
	C90.908,47.531,90.09,47.716,89.338,48.069z M48.453,47.531c-3.141,0-5.695,2.553-5.695,5.69c0,0.911,0.213,1.788,0.622,2.583
	c1.983-3.003,4.44-5.622,7.323-7.811C49.997,47.689,49.234,47.531,48.453,47.531z M74.764,41.86
	c0.166,0.025,0.331,0.052,0.496,0.079c-0.844-2.132-2.918-3.588-5.29-3.588c-2.371,0-4.445,1.456-5.289,3.588
	c0.132-0.022,0.266-0.043,0.399-0.064C68.237,41.387,71.604,41.382,74.764,41.86z M69.971,101.784
	c-8.218,0-15.633-3.494-20.838-9.074c-0.026-0.02-0.052-0.042-0.077-0.066c-0.039-0.039-0.073-0.081-0.101-0.126
	c-4.639-5.065-7.472-11.807-7.472-19.197c0-5.258,1.435-10.187,3.933-14.418c0.011-0.025,0.024-0.051,0.039-0.075
	c2.099-3.537,5.001-6.639,8.394-8.97c0.028-0.021,0.058-0.037,0.088-0.053c4.567-3.119,10.085-4.946,16.022-4.948h0
	c0.007,0,0.017,0,0.024,0h0c6.033,0.003,11.63,1.888,16.24,5.098c0.024,0.014,0.049,0.028,0.071,0.045
	c3.331,2.331,6.181,5.412,8.24,8.909c0.013,0.022,0.024,0.045,0.036,0.068c2.469,4.211,3.886,9.109,3.889,14.332l0,0
	c0,0.004,0,0.008,0,0.012s0,0.008,0,0.012c0,0,0,0,0,0.001c-0.004,7.385-2.836,14.121-7.473,19.184
	c-0.027,0.044-0.063,0.087-0.102,0.126c-0.024,0.025-0.051,0.048-0.078,0.068C85.603,98.29,78.187,101.784,69.971,101.784z
	 M50.634,92.123c4.907,5.037,11.762,8.17,19.337,8.17c7.574,0,14.43-3.133,19.336-8.17c-1.43-1.362-3.535-1.803-5.395-1.119
	l-2.977,1.093c-7.07,2.598-14.859,2.598-21.93,0l-2.976-1.093C54.169,90.321,52.064,90.761,50.634,92.123z M54.241,89.195
	c0.774,0,1.555,0.134,2.304,0.409l2.976,1.093c6.738,2.476,14.161,2.476,20.899,0l2.977-1.093c2.387-0.877,5.083-0.317,6.922,1.422
	c2.799-3.206,4.852-7.075,5.888-11.339c-2.365-1.231-3.862-3.666-3.862-6.366c0-2.701,1.497-5.136,3.862-6.367
	c-0.584-2.401-1.489-4.676-2.669-6.779c-0.588,0.152-1.188,0.229-1.787,0.229c-3.963,0-7.188-3.223-7.188-7.183
	c0-0.797,0.131-1.577,0.39-2.328c-2.56-1.713-5.427-3-8.5-3.76c-1.183,2.472-3.71,4.091-6.481,4.091
	c-2.771,0-5.297-1.619-6.48-4.091c-2.99,0.739-5.785,1.978-8.291,3.62c0.294,0.794,0.443,1.621,0.443,2.468
	c0,3.96-3.225,7.183-7.188,7.183c-0.683,0-1.358-0.098-2.014-0.291c-1.192,2.112-2.107,4.4-2.698,6.815
	c2.398,1.222,3.916,3.666,3.916,6.393c0,2.726-1.517,5.171-3.916,6.392c1.039,4.254,3.088,8.114,5.881,11.314
	C50.885,89.833,52.55,89.195,54.241,89.195z M43.42,68.455c-0.295,1.612-0.444,3.244-0.444,4.865s0.149,3.254,0.444,4.865
	c1.691-1.02,2.744-2.845,2.744-4.865C46.164,71.301,45.111,69.476,43.42,68.455z M96.527,68.486c-1.659,1.026-2.69,2.839-2.69,4.834
	s1.031,3.808,2.69,4.834c0.291-1.601,0.438-3.223,0.438-4.834S96.818,70.087,96.527,68.486z M86.234,51.807
	c-0.119,0.461-0.18,0.935-0.18,1.415c0,3.139,2.555,5.691,5.695,5.691c0.326,0,0.653-0.029,0.978-0.087
	C90.994,56.119,88.791,53.74,86.234,51.807z M47.243,58.78c0.397,0.088,0.802,0.132,1.21,0.132c3.141,0,5.696-2.553,5.696-5.69
	c0-0.537-0.076-1.064-0.226-1.577C51.287,53.597,49.02,56.017,47.243,58.78z M65.002,46.812c0.995,1.777,2.896,2.921,4.968,2.921
	c2.072,0,3.974-1.144,4.968-2.921c-1.643-0.307-3.306-0.462-4.956-0.463h0c-0.008,0-0.016-0.001-0.022,0h0
	C68.307,46.35,66.644,46.505,65.002,46.812z"/>
<path display="none" fill="#EE8803" d="M48.514,106.988c1.512,0,3.021-0.313,4.445-0.934c2.691-1.174,4.759-3.313,5.821-6.023
	L79.16,48.06c1.383-3.528,4.456-6.05,8.22-6.746l7.278-1.348l12.221-1.164c0.973-0.093,1.689-0.92,1.632-1.885
	c-0.028-0.481-0.247-0.921-0.614-1.239c-0.366-0.317-0.835-0.474-1.323-0.438l-1.649,0.119c-0.559,0.04-1.12-0.111-1.581-0.425
	l-0.336-0.23c-0.852-0.582-1.881-0.806-2.899-0.635l-5.93,1.001c-0.004,0-0.007,0.001-0.01,0.002l0,0c-0.001,0-0.002,0-0.003,0
	s-0.001,0-0.001,0c-0.005,0.001-0.01,0.002-0.014,0.003l-10.395,2.101c-3.964,0.8-7.297,3.464-8.916,7.126l-1.991,4.43
	c-0.24-0.27-0.549-0.489-0.911-0.627c-0.588-0.224-1.228-0.21-1.802,0.041c-0.576,0.251-1.018,0.708-1.245,1.288
	c-0.469,1.196,0.135,2.546,1.345,3.01c0.288,0.11,0.599,0.155,0.876,0.157l-1.761,3.918c-0.237-0.258-0.537-0.467-0.888-0.602
	c-1.212-0.463-2.578,0.133-3.047,1.329c-0.469,1.196,0.134,2.546,1.345,3.01c0.276,0.105,0.561,0.156,0.84,0.157l-1.744,3.881
	c-0.229-0.237-0.515-0.429-0.845-0.555c-0.586-0.224-1.227-0.21-1.802,0.042c-0.575,0.251-1.018,0.708-1.245,1.288
	s-0.212,1.211,0.042,1.78s0.717,1.005,1.304,1.23c0.255,0.097,0.518,0.147,0.776,0.156l-1.725,3.837
	c-0.226-0.22-0.497-0.394-0.801-0.51c-0.587-0.224-1.227-0.21-1.802,0.041s-1.018,0.708-1.245,1.288
	c-0.227,0.579-0.212,1.211,0.042,1.779s0.717,1.006,1.304,1.23c0.231,0.088,0.472,0.14,0.713,0.154L52.303,94.46
	c-0.247,0.561-0.891,0.825-1.462,0.604c-0.284-0.108-0.51-0.32-0.634-0.597c-0.123-0.276-0.13-0.583-0.02-0.864l3.201-8.163
	c1.452-3.704,2.043-7.753,1.71-11.712l-0.562-6.689l1.188-0.32c0.392-0.106,0.622-0.504,0.515-0.891
	c-0.106-0.386-0.511-0.614-0.901-0.509l-14.807,3.993c-0.004,0.001-0.009,0.002-0.013,0.004l-2.229,0.601
	c-0.391,0.105-0.621,0.504-0.515,0.891s0.51,0.614,0.901,0.509l1.503-0.405l1.368,5.979c0.647,2.829,0.43,5.753-0.631,8.457
	l-2.676,6.824c-1.063,2.71-0.994,5.666,0.194,8.325s3.354,4.701,6.097,5.751C45.823,106.741,47.17,106.988,48.514,106.988z
	 M93.775,38.654l-6.665,1.233c-4.268,0.79-7.751,3.649-9.319,7.648l-20.38,51.972c-0.921,2.349-2.713,4.203-5.045,5.221
	s-4.926,1.077-7.304,0.167s-4.254-2.68-5.284-4.984s-1.091-4.867-0.169-7.215l2.676-6.824c1.166-2.975,1.406-6.19,0.694-9.301
	l-1.383-6.041l8.105-2.187l0.605,5.001c0.332,2.744,0.033,5.579-0.865,8.197l-3.529,10.287c-0.13,0.379,0.076,0.791,0.46,0.92
	c0.383,0.127,0.801-0.074,0.932-0.455l3.528-10.287c0.968-2.821,1.291-5.877,0.933-8.835l-0.632-5.214l1.963-0.529l0.54,6.421
	c0.314,3.74-0.244,7.567-1.617,11.067l-3.201,8.163c-0.252,0.643-0.235,1.344,0.046,1.974c0.282,0.631,0.796,1.115,1.446,1.364
	c1.308,0.501,2.774-0.102,3.337-1.372l8.95-19.922c0.127-0.167,0.23-0.353,0.309-0.553c0.051-0.129,0.089-0.259,0.115-0.391
	l13.162-29.293c1.43-3.234,4.37-5.584,7.865-6.291l9.58-1.935L93.775,38.654z M61.34,74.348c-0.076,0.076-0.168,0.139-0.271,0.184
	c-0.217,0.094-0.457,0.1-0.678,0.016c-0.222-0.085-0.396-0.25-0.491-0.463c-0.096-0.215-0.101-0.452-0.016-0.67
	c0.085-0.219,0.252-0.391,0.468-0.485c0.218-0.095,0.458-0.101,0.679-0.016s0.395,0.249,0.491,0.462
	c0.057,0.129,0.082,0.266,0.074,0.4L61.34,74.348z M64.161,65.031c0.108,0,0.217,0.02,0.32,0.06
	c0.456,0.174,0.683,0.683,0.506,1.133c-0.085,0.218-0.252,0.39-0.468,0.485c-0.217,0.094-0.457,0.1-0.678,0.015
	c-0.456-0.174-0.684-0.683-0.507-1.132c0.085-0.218,0.252-0.391,0.468-0.485C63.918,65.057,64.039,65.031,64.161,65.031z
	 M67.611,57.21c0.108,0,0.217,0.02,0.32,0.06c0.456,0.174,0.683,0.683,0.507,1.133c-0.086,0.218-0.252,0.39-0.469,0.485
	c-0.217,0.094-0.457,0.1-0.678,0.015c-0.456-0.174-0.684-0.682-0.507-1.132c0.085-0.218,0.252-0.39,0.469-0.485
	C67.368,57.235,67.49,57.21,67.611,57.21z M71.086,49.397c0.108,0,0.217,0.02,0.32,0.06c0.221,0.084,0.395,0.249,0.49,0.462
	c0.096,0.214,0.102,0.452,0.016,0.67c-0.085,0.218-0.252,0.39-0.468,0.485c-0.217,0.095-0.456,0.1-0.679,0.016
	c-0.455-0.174-0.683-0.683-0.506-1.133c0.085-0.218,0.252-0.39,0.468-0.484C70.843,49.422,70.964,49.397,71.086,49.397z
	 M106.706,36.686c0.109,0,0.187,0.052,0.224,0.083c0.04,0.035,0.108,0.111,0.116,0.233c0.011,0.182-0.125,0.338-0.309,0.355
	l-11.505,1.096l-0.152-2.065l5.274-0.89c0.639-0.108,1.284,0.034,1.816,0.397l0.336,0.23c0.736,0.502,1.633,0.742,2.523,0.68
	l1.649-0.119C106.688,36.686,106.697,36.686,106.706,36.686z"/>
<path display="none" fill="#EE8803" d="M51.882,108.289c-2.981,0-5.785-1.161-7.893-3.27c-2.108-2.107-3.269-4.91-3.269-7.892
	s1.161-5.784,3.269-7.892l2.699-2.699l-1.019-1.02c-1.871-1.87-1.932-4.859-0.14-6.805L63,59.748
	c-0.557-0.964-0.462-2.213,0.303-3.085l8.693-9.896c0.395-3.015,1.737-5.74,3.893-7.896c5.343-5.342,14.035-5.342,19.378,0
	c2.588,2.588,4.013,6.029,4.013,9.688s-1.425,7.1-4.013,9.688c-2.155,2.156-4.882,3.499-7.896,3.893l-9.896,8.692
	c-0.872,0.765-2.121,0.86-3.085,0.302L55.422,88.605c-1.945,1.791-4.935,1.73-6.805-0.141l-0.925-0.925l-2.699,2.698
	c-3.798,3.799-3.798,9.979,0,13.777c1.84,1.84,4.287,2.854,6.889,2.854c2.602,0,5.049-1.014,6.889-2.854l19.573-19.572
	c3.487-3.487,9.161-3.487,12.648,0c3.486,3.486,3.486,9.16,0,12.646l-5.406,5.404c-0.276,0.277-0.726,0.277-1.003,0
	s-0.277-0.727,0-1.004l5.405-5.404c1.42-1.421,2.203-3.311,2.203-5.32c0-2.009-0.783-3.898-2.203-5.318
	c-2.934-2.934-7.707-2.934-10.641,0L59.774,105.02C57.666,107.128,54.863,108.289,51.882,108.289z M48.2,86.041l1.42,1.42
	c1.33,1.33,3.456,1.375,4.839,0.1L73.861,69.69c0.281-0.258,0.714-0.249,0.982,0.02c0.461,0.46,1.204,0.484,1.693,0.055l9.582-8.416
	L72.787,48.017l-8.417,9.582c-0.429,0.488-0.405,1.232,0.055,1.691c0.27,0.27,0.278,0.703,0.021,0.983l-17.872,19.4
	c-1.275,1.384-1.231,3.51,0.099,4.84l1.515,1.514c0.002,0.003,0.004,0.005,0.006,0.007C48.196,86.037,48.198,86.039,48.2,86.041z
	 M73.444,46.667l14.024,14.024c2.59-0.398,4.93-1.584,6.794-3.448c4.789-4.789,4.789-12.581,0-17.37
	c-4.789-4.789-12.581-4.788-17.37,0C75.028,41.738,73.842,44.078,73.444,46.667z M66.252,70.725c-0.723,0-1.402-0.281-1.914-0.792
	l-0.136-0.136c-1.055-1.055-1.055-2.771,0-3.826l6.987-6.987c1.056-1.055,2.772-1.055,3.826,0l0.137,0.136
	c1.055,1.055,1.055,2.771,0,3.826l-6.987,6.987l0,0C67.654,70.443,66.975,70.725,66.252,70.725z M73.104,59.611
	c-0.33,0-0.658,0.125-0.91,0.376l-6.987,6.987c-0.501,0.501-0.501,1.317,0,1.819l0.136,0.136c0.486,0.486,1.333,0.486,1.818,0l0,0
	l6.987-6.987c0.243-0.243,0.377-0.565,0.377-0.909c0-0.343-0.134-0.666-0.377-0.909l-0.136-0.136
	C73.762,59.736,73.433,59.611,73.104,59.611z M66.33,68.515c-0.182,0-0.363-0.069-0.502-0.208c-0.277-0.277-0.277-0.727,0-1.004
	l1.129-1.129c0.277-0.277,0.727-0.277,1.003,0c0.277,0.277,0.277,0.727,0,1.004l-1.129,1.129
	C66.693,68.445,66.511,68.515,66.33,68.515z M91.801,42.914c-0.182,0-0.363-0.069-0.502-0.208c-3.19-3.19-8.383-3.191-11.574,0
	c-0.276,0.277-0.727,0.277-1.003,0c-0.277-0.277-0.277-0.726,0-1.003c3.745-3.744,9.837-3.744,13.581,0
	c0.277,0.277,0.277,0.727,0,1.003C92.164,42.845,91.982,42.914,91.801,42.914z"/>
<path display="none" fill="#EE8803" d="M37.217,105.305c-0.224,0-0.444-0.105-0.582-0.305c-0.223-0.32-0.143-0.762,0.178-0.984
	l18.628-12.949l-6.952-10.021c-2.87-4.139-3.959-9.146-3.066-14.104c0.893-4.958,3.662-9.271,7.795-12.143l18.479-12.844
	c8.298-5.768,19.594-3.991,25.717,4.045c0.227,0.298,0.183,0.722-0.102,0.967c-0.314,0.271-0.605,0.556-0.874,0.855
	c0.792,0.445,2.059,1.216,3.188,2.173c1.723,1.458,2.923,3.348,3.059,3.565l2.585,3.727c0.005,0.008,0.011,0.015,0.015,0.023
	c0.006,0.008,0.011,0.016,0.016,0.024c0.111,0.185,1.763,2.934,2.708,5.772c0.952,2.862,1.878,9.353,1.917,9.628
	c0.047,0.336-0.149,0.656-0.469,0.769l-52.706,18.38l-19.13,13.298C37.497,105.264,37.357,105.305,37.217,105.305z M62.684,49.943
	l-8.658,6.018c-3.823,2.657-6.383,6.646-7.209,11.231c-0.826,4.585,0.181,9.218,2.835,13.044l6.952,10.022l14.695-10.215
	c0.005-0.003,0.01-0.007,0.014-0.009l8.262-5.743L62.684,49.943z M64.961,86.174c-0.002,0.002-0.004,0.004-0.007,0.006l-3.872,2.691
	l47.357-16.515c-0.252-1.67-1.021-6.542-1.773-8.803c-0.641-1.924-1.656-3.859-2.202-4.836L77.803,77.248l25.129-10.734
	c0.359-0.154,0.775,0.014,0.928,0.374c0.154,0.36-0.014,0.776-0.372,0.93L72.055,81.244L64.961,86.174z M63.847,49.135l16.891,24.35
	l22.97-15.967l-1.791-2.584l-6.03,4.191c-0.154,0.107-0.345,0.149-0.529,0.115c-0.185-0.033-0.349-0.139-0.456-0.293l-0.68-0.98
	c-2.411-3.476-1.674-8.361,1.666-11.616c-5.744-6.999-15.886-8.445-23.383-3.234L63.847,49.135z M95.566,48.958
	c-1.688,2.606-1.838,5.814-0.183,8.201l0.276,0.398l5.457-3.793c-0.467-0.659-1.334-1.782-2.404-2.689
	C97.589,50.123,96.281,49.351,95.566,48.958z M54.652,82.619c-0.224,0-0.444-0.105-0.582-0.304l-2.787-4.018
	c-4.558-6.571-2.926-15.629,3.639-20.192l3.347-2.327c0.321-0.223,0.762-0.143,0.985,0.178c0.223,0.321,0.143,0.763-0.178,0.986
	l-3.347,2.327c-5.924,4.117-7.396,12.291-3.283,18.221l2.787,4.018c0.223,0.32,0.143,0.762-0.178,0.984
	C54.933,82.579,54.792,82.619,54.652,82.619z"/>
<path display="none" fill="#EE8803" d="M51.059,107.721c-0.185,0-0.369-0.07-0.51-0.212L36.725,93.678
	c-3.03-3.031-3.03-7.965,0-10.996l46.104-46.124c1.468-1.469,3.42-2.277,5.495-2.277s4.027,0.809,5.495,2.277l13.824,13.831
	c0.136,0.135,0.212,0.318,0.212,0.51c0,0.191-0.076,0.375-0.212,0.51l-6.025,6.029c-0.002,0.001-0.002,0.002-0.004,0.004
	l-2.676,2.676c0,0.001-0.002,0.002-0.002,0.003c-0.002,0.001-0.003,0.002-0.004,0.003l-2.795,2.797
	c-0.002,0.001-0.004,0.003-0.006,0.005s-0.004,0.003-0.006,0.005L82.374,76.689c-0.003,0.003-0.007,0.006-0.009,0.008
	c-0.002,0.003-0.006,0.007-0.009,0.01l-2.786,2.787c-0.003,0.003-0.006,0.006-0.009,0.009s-0.007,0.007-0.009,0.009L65.808,93.263
	c-0.003,0.004-0.008,0.008-0.011,0.012s-0.008,0.007-0.012,0.011l-2.781,2.783c-0.004,0.004-0.007,0.008-0.011,0.012
	c-0.004,0.004-0.008,0.007-0.012,0.012l-11.412,11.417C51.428,107.65,51.243,107.721,51.059,107.721z M88.323,35.723
	c-1.69,0-3.28,0.659-4.476,1.855L37.744,83.702c-2.468,2.47-2.468,6.486,0,8.956l13.314,13.32l5.011-5.012l-8.471-8.475
	c-0.281-0.281-0.281-0.738,0-1.02l8.185-8.189c0.004-0.004,0.008-0.009,0.013-0.014c0.005-0.004,0.009-0.009,0.014-0.014
	l3.683-3.684c0.004-0.005,0.008-0.009,0.013-0.014l3.542-3.543c0.004-0.005,0.009-0.01,0.013-0.014l9.291-9.295
	c0.005-0.005,0.009-0.009,0.013-0.014c0.006-0.005,0.01-0.009,0.014-0.014l3.684-3.684c0.004-0.005,0.008-0.009,0.013-0.014
	l3.542-3.543c0.004-0.005,0.009-0.009,0.014-0.014l7.477-7.48c0.002-0.001,0.002-0.001,0.003-0.002l1.812-1.812
	c0.004-0.004,0.008-0.009,0.013-0.014c0.005-0.004,0.009-0.009,0.014-0.013l2.665-2.666c0.281-0.282,0.737-0.282,1.02,0l8.471,8.474
	l5.01-5.013L92.799,37.578C91.604,36.382,90.014,35.723,88.323,35.723z M49.128,91.982l7.96,7.963l1.656-1.656l-7.96-7.964
	L49.128,91.982z M51.803,89.305l7.96,7.965l1.7-1.7l-3.471-3.472l-0.467,0.467c-0.281,0.281-0.738,0.281-1.02,0l-3.98-3.982
	L51.803,89.305z M59.013,91.077l3.47,3.472l1.784-1.785l-7.96-7.963L55.5,85.607l3.98,3.982c0.282,0.281,0.282,0.738,0,1.02
	L59.013,91.077z M57.327,83.779l7.96,7.965l1.699-1.701l-3.47-3.472l-0.468,0.468c-0.282,0.281-0.738,0.281-1.02,0l-3.98-3.982
	L57.327,83.779z M53.545,87.563l3.47,3.473l0.935-0.936l-3.471-3.473L53.545,87.563z M64.536,85.551l3.47,3.473l1.785-1.785
	l-7.961-7.965l-0.807,0.809l3.98,3.982c0.135,0.135,0.211,0.318,0.211,0.51s-0.076,0.375-0.211,0.51L64.536,85.551z M62.849,78.254
	l7.961,7.965l1.699-1.701l-3.471-3.472l-0.468,0.468c-0.281,0.281-0.738,0.281-1.019,0l-3.98-3.982L62.849,78.254z M59.068,82.037
	l3.471,3.473l0.935-0.936l-3.47-3.473L59.068,82.037z M70.059,80.025l3.471,3.473l1.783-1.785l-7.96-7.965l-0.807,0.809l3.98,3.981
	c0.282,0.282,0.282,0.738,0,1.021L70.059,80.025z M68.373,72.729l7.96,7.964l1.7-1.7l-3.471-3.473l-0.468,0.469
	c-0.282,0.281-0.737,0.281-1.02,0l-3.979-3.982L68.373,72.729z M64.591,76.512l3.471,3.472l0.934-0.935l-3.47-3.473L64.591,76.512z
	 M75.582,74.5l3.471,3.473l1.783-1.785l-7.96-7.964l-0.808,0.808l3.98,3.982c0.281,0.282,0.281,0.738,0,1.021L75.582,74.5z
	 M73.896,67.203l7.96,7.964l1.699-1.7l-3.471-3.472l-0.468,0.468c-0.27,0.271-0.748,0.271-1.02,0l-3.98-3.982L73.896,67.203z
	 M70.114,70.986l3.471,3.471l0.935-0.935l-3.471-3.472L70.114,70.986z M81.104,68.975l3.471,3.473l1.784-1.786l-7.961-7.964
	l-0.807,0.808l3.98,3.982c0.281,0.282,0.281,0.738,0,1.02L81.104,68.975z M79.418,61.677l7.961,7.964l1.699-1.7l-3.471-3.472
	l-0.467,0.467c-0.281,0.282-0.738,0.282-1.02,0l-3.98-3.982L79.418,61.677z M75.637,65.46l3.471,3.472l0.936-0.936l-3.471-3.472
	L75.637,65.46z M86.627,63.449l3.471,3.472l1.785-1.786l-7.961-7.964l-0.807,0.808l3.98,3.982c0.281,0.282,0.281,0.738,0,1.02
	L86.627,63.449z M84.941,56.152l7.961,7.964l1.699-1.7l-3.47-3.472l-0.468,0.467c-0.281,0.282-0.738,0.282-1.02,0l-3.98-3.982
	L84.941,56.152z M81.16,59.935l3.471,3.472l0.936-0.936l-3.471-3.472L81.16,59.935z M92.15,57.924l3.471,3.472l1.785-1.785
	l-7.961-7.965l-0.807,0.808l3.979,3.982c0.282,0.282,0.282,0.738,0,1.02L92.15,57.924z M90.465,50.626l7.961,7.964l1.658-1.66
	l-7.961-7.964L90.465,50.626z M86.684,54.409l3.471,3.472l0.935-0.936l-3.47-3.472L86.684,54.409z M42.303,92.426
	c-1.252,0-2.429-0.488-3.314-1.374s-1.373-2.063-1.373-3.315s0.487-2.43,1.373-3.314c1.827-1.828,4.801-1.828,6.628,0
	c1.828,1.828,1.828,4.803,0,6.631C44.731,91.938,43.555,92.426,42.303,92.426z M42.303,84.492c-0.831,0-1.662,0.316-2.294,0.949
	c-1.265,1.266-1.265,3.324,0,4.591c1.266,1.267,3.324,1.267,4.589,0s1.265-3.325,0-4.591C43.965,84.809,43.134,84.492,42.303,84.492
	z M52.196,84.171c-0.185,0-0.369-0.07-0.51-0.211l-5.608-5.61c-0.281-0.282-0.281-0.738,0-1.021l12.618-12.624
	c0.282-0.282,0.738-0.282,1.02,0l5.608,5.611c0.282,0.282,0.282,0.739,0,1.02L52.706,83.96
	C52.564,84.101,52.38,84.171,52.196,84.171z M47.607,77.839l4.589,4.591l11.599-11.604l-4.589-4.59L47.607,77.839z M67.427,68.933
	c-0.185,0-0.368-0.07-0.509-0.211l-0.197-0.197c-0.281-0.281-0.282-0.738,0-1.02c0.281-0.283,0.737-0.283,1.02-0.001l0.197,0.197
	c0.281,0.282,0.282,0.738,0,1.02C67.796,68.863,67.611,68.933,67.427,68.933z M69.402,66.957c-0.185,0-0.369-0.07-0.51-0.211
	l-0.197-0.197c-0.281-0.282-0.281-0.738,0-1.02s0.738-0.282,1.02,0l0.197,0.197c0.281,0.282,0.281,0.739,0,1.02
	C69.771,66.886,69.587,66.957,69.402,66.957z M64.721,66.226c-0.185,0-0.369-0.07-0.51-0.211l-0.197-0.197
	c-0.282-0.282-0.281-0.739,0-1.02c0.282-0.281,0.738-0.281,1.02,0l0.197,0.197c0.281,0.282,0.281,0.739-0.001,1.02
	C65.089,66.156,64.905,66.226,64.721,66.226z M66.697,64.25c-0.185,0-0.369-0.07-0.51-0.211l-0.197-0.197
	c-0.282-0.282-0.282-0.738,0-1.02c0.281-0.282,0.738-0.282,1.019,0l0.197,0.197c0.282,0.282,0.282,0.738,0,1.02
	C67.066,64.179,66.881,64.25,66.697,64.25z M72.397,63.96c-0.185,0-0.368-0.07-0.51-0.211l-5.608-5.61
	c-0.281-0.282-0.281-0.738,0-1.02c0.282-0.282,0.738-0.282,1.02,0l5.608,5.61c0.282,0.282,0.282,0.738,0,1.02
	C72.766,63.89,72.582,63.96,72.397,63.96z M62.016,63.52c-0.185,0-0.369-0.07-0.51-0.212l-0.197-0.197
	c-0.282-0.282-0.281-0.738,0-1.02c0.282-0.282,0.738-0.281,1.02,0.001l0.197,0.197c0.282,0.282,0.281,0.739,0,1.02
	C62.384,63.45,62.2,63.52,62.016,63.52z M74.734,61.623c-0.186,0-0.369-0.071-0.51-0.211L68.616,55.8
	c-0.282-0.282-0.282-0.738,0-1.02s0.737-0.282,1.02,0l5.608,5.611c0.281,0.282,0.281,0.738,0,1.02
	C75.104,61.552,74.918,61.623,74.734,61.623z M63.991,61.543c-0.185,0-0.369-0.07-0.51-0.211l-0.197-0.197
	c-0.282-0.281-0.283-0.738-0.001-1.02c0.281-0.283,0.738-0.283,1.02-0.001l0.197,0.197c0.282,0.281,0.282,0.738,0,1.02
	C64.36,61.473,64.176,61.543,63.991,61.543z M77.07,59.285c-0.184,0-0.368-0.07-0.509-0.211l-5.608-5.611
	c-0.281-0.282-0.281-0.738,0-1.02s0.738-0.282,1.02,0l5.607,5.611c0.282,0.282,0.282,0.738,0,1.02
	C77.439,59.214,77.256,59.285,77.07,59.285z M79.407,56.947c-0.185,0-0.368-0.07-0.51-0.211l-5.608-5.61
	c-0.281-0.282-0.281-0.738,0-1.02s0.738-0.282,1.02,0l5.608,5.61c0.282,0.282,0.282,0.738,0,1.02
	C79.776,56.876,79.592,56.947,79.407,56.947z M81.744,54.609c-0.185,0-0.369-0.07-0.51-0.211l-5.608-5.611
	c-0.281-0.282-0.281-0.738,0-1.02c0.282-0.282,0.738-0.282,1.02,0l5.608,5.611c0.281,0.282,0.281,0.738,0,1.02
	C82.113,54.539,81.929,54.609,81.744,54.609z M84.081,52.271c-0.185,0-0.368-0.07-0.51-0.211l-5.608-5.611
	c-0.281-0.282-0.281-0.738,0-1.02s0.738-0.282,1.02,0l5.608,5.611c0.281,0.282,0.281,0.738,0,1.02
	C84.449,52.201,84.266,52.271,84.081,52.271z M87.871,46.834c-1.2,0-2.4-0.458-3.314-1.372c-1.826-1.828-1.826-4.802,0-6.63
	c0.886-0.886,2.063-1.374,3.314-1.374s2.429,0.487,3.313,1.374c0.886,0.885,1.373,2.063,1.373,3.315c0,1.252-0.487,2.43-1.373,3.315
	C90.271,46.377,89.07,46.834,87.871,46.834z M87.871,38.903c-0.831,0-1.662,0.316-2.295,0.95c-1.265,1.266-1.265,3.325,0,4.591
	c1.266,1.266,3.324,1.266,4.59,0c1.264-1.266,1.264-3.325,0-4.591C89.532,39.219,88.701,38.903,87.871,38.903z"/>
</svg>
