<?xml version="1.0" encoding="utf-8"?>
<!-- Generator: Adobe Illustrator 16.0.0, SVG Export Plug-In . SVG Version: 6.00 Build 0)  -->
<!DOCTYPE svg PUBLIC "-//W3C//DTD SVG 1.1//EN" "http://www.w3.org/Graphics/SVG/1.1/DTD/svg11.dtd">
<svg version="1.1" id="Layer_1" xmlns="http://www.w3.org/2000/svg" xmlns:xlink="http://www.w3.org/1999/xlink" x="0px" y="0px"
	 width="178px" height="45px" viewBox="0.059 0.217 178 45" enable-background="new 0.059 0.217 178 45" xml:space="preserve">
<g>
	<g>
		<g>
			<path fill="#FFFFFF" d="M24.051,42.055h-8.566c-0.924-1.107-1.387-4.242-1.387-9.41v-0.057l0.055-2.338
				c0.053-3.244,0.08-4.902,0.08-4.979c0-1.32-0.889-1.982-2.664-1.982v18.709H3V3h10.58c2.412,0,4.51,0.554,6.297,1.659
				c1.785,1.104,2.678,2.854,2.678,5.25v4.677c0,3.027-1.768,5.078-5.303,6.146c3.553,0.834,5.33,2.982,5.33,6.447l-0.135,4.268
				C22.447,37.684,22.981,41.221,24.051,42.055z M14.205,16.484v-6.435c0-1.363-0.879-2.045-2.637-2.045v10.552
				C13.326,18.556,14.205,17.866,14.205,16.484z"/>
			<path fill="#FFFFFF" d="M32.79,45.055H14.082l-0.045-0.057H0V0h13.58c2.963,0,5.613,0.709,7.875,2.105
				c1.872,1.16,4.1,3.453,4.1,7.803v4.677c0,1.604-0.39,4.021-2.333,6.07c1.546,1.642,2.36,3.849,2.36,6.521l-0.136,4.363
				c0.001,5.934,0.524,7.848,0.72,8.355L32.79,45.055z M17.513,39.055h2.343c-0.266-1.842-0.408-4.293-0.408-7.607l0.136-4.361
				c-0.001-1.543-0.445-2.689-2.568-3.313c0.148,0.498,0.217,1.011,0.217,1.502c0,0.061-0.017,1.115-0.05,3.168l-0.085,4.221
				C17.097,36.082,17.312,38.004,17.513,39.055z M6,38.998h2.568V21.775L6,21.172V38.998z M6,6v15.002l2.568-0.777V6H6z
				 M15.391,6.141c1.293,1.007,1.814,2.526,1.814,3.908v6.435c0,0.373-0.038,0.755-0.117,1.137c2.467-0.956,2.467-2.29,2.467-3.034
				V9.908c0-1.692-0.636-2.314-1.258-2.699C17.435,6.676,16.474,6.322,15.391,6.141z"/>
		</g>
		<g>
			<path fill="#FFFFFF" d="M43.557,28.619H33.168v7.367c0,1.068,0.445,1.605,1.332,1.605c0.871,0,1.307-0.535,1.307-1.605v-4.654
				h7.75v4.711c0,4.26-3.037,6.391-9.109,6.391c-6.021,0-9.029-2.221-9.029-6.662V16.87c0-4.441,3.008-6.663,9.029-6.663
				c6.072,0,9.109,2.131,9.109,6.392V28.619z M35.807,23.887v-7.233c0-1.031-0.436-1.55-1.307-1.55c-0.887,0-1.332,0.519-1.332,1.55
				v7.233H35.807z"/>
			<path fill="#FFFFFF" d="M34.447,45.434c-10.857,0-12.029-6.758-12.029-9.662V16.87c0-2.905,1.172-9.663,12.029-9.663
				c10.929,0,12.109,6.566,12.109,9.392v19.444C46.557,38.867,45.377,45.434,34.447,45.434z M38.807,34.332v1.654
				c0,1.258-0.38,2.34-1.041,3.137c2.791-0.648,2.791-2.166,2.791-3.08v-1.711H38.807z M31.252,13.512
				c-2.833,0.669-2.833,2.292-2.833,3.357v18.9c0,1.063,0,2.672,2.793,3.35c-0.662-0.799-1.043-1.877-1.043-3.133V16.653
				C30.168,15.389,30.565,14.305,31.252,13.512z M38.807,25.619h1.75v-9.021c0-0.917,0-2.446-2.83-3.09
				c0.685,0.793,1.08,1.878,1.08,3.145V25.619z"/>
		</g>
		<g>
			<path fill="#FFFFFF" d="M63.853,41.998h-6.854v-1.225c-0.58,1.105-2.24,1.658-4.979,1.658c-4.224,0-6.335-1.648-6.335-4.949
				v-6.336c0-1.414,0.512-2.646,1.535-3.699c1.025-1.051,3.088-2.363,6.189-3.941C55.204,22.6,56.1,21.874,56.1,21.33v-4.68
				c0-1.031-0.443-1.55-1.332-1.55c-1.016,0-1.523,1.26-1.523,3.78c0,0.454,0.027,1.124,0.082,2.013
				c0.072,0.89,0.109-0.147,0.109,0.304h-7.479v-4.601c0-4.26,3.082-6.392,9.247-6.392c5.766,0,8.648,2.221,8.648,6.663
				L63.853,41.998L63.853,41.998z M56.101,36.098v-8.131c-1.777,0.436-2.664,1.23-2.664,2.393v5.738
				c0,0.961,0.461,1.441,1.387,1.441C55.675,37.539,56.101,37.059,56.101,36.098z"/>
			<path fill="#FFFFFF" d="M52.021,45.434c-8.662,0-9.335-6.084-9.335-7.949v-6.336c0-2.186,0.824-4.188,2.384-5.791
				c0.366-0.375,0.807-0.758,1.33-1.156h-3.442V16.6c0-3.507,1.591-9.392,12.247-9.392c10.513,0,11.648,6.757,11.648,9.663v28.128
				H55.845C54.299,45.434,52.769,45.434,52.021,45.434z M50.833,28.408c-0.817,0.539-1.245,0.908-1.465,1.135
				c-0.478,0.492-0.683,0.973-0.683,1.604v6.336c0,0.896,0,1.902,3.115,1.947c-0.858-0.787-1.364-1.951-1.364-3.334v-5.738
				C50.437,29.895,50.506,29.178,50.833,28.408z M58.168,38.998h2.685V16.87c0-1.097,0-2.779-2.883-3.411
				c0.716,0.797,1.131,1.899,1.131,3.192v4.68c0,1.354-0.697,2.384-1.721,3.229l1.721-0.422v11.957
				C59.101,37.246,58.761,38.242,58.168,38.998z M48.957,18.2h1.301c0.091-2.271,0.636-3.716,1.357-4.624
				c-2.659,0.691-2.659,2.192-2.659,3.021L48.957,18.2L48.957,18.2z"/>
		</g>
		<g>
			<path fill="#FFFFFF" d="M73.759,41.998h-7.752V3h7.752V41.998z"/>
			<path fill="#FFFFFF" d="M76.759,44.998H63.007V0h13.752V44.998z M69.007,38.998h1.752V6h-1.752V38.998z"/>
		</g>
	</g>
	<g>
		<path fill="#FFFFFF" d="M105.285,41.998h-7.642V20.107l-4.461,21.893h-5.902l-5.11-21.893v21.893h-6.691V3h11.014l3.918,20.232
			L93.81,3h11.477L105.285,41.998L105.285,41.998z"/>
		<path fill="#FFFFFF" d="M108.283,44.998H72.478V0h16.488l1.232,6.369L91.27,0h17.013V44.998z M100.646,38.998h1.641V6h-5.939
			L93.37,23.73l-5.905,0.074L84.017,6h-5.537v32.998h0.689V20.107l5.922-0.682l4.57,19.573h1.07l3.973-19.49l5.938,0.599v18.893
			L100.646,38.998L100.646,38.998z"/>
	</g>
	<g>
		<path fill="#FFFFFF" d="M125.524,41.998h-7.75v-1.061c-1,0.996-2.603,1.496-4.801,1.496c-1.524,0-2.851-0.404-3.968-1.211
			c-1.118-0.809-1.678-1.863-1.678-3.168v-27.63h7.75v25.671c0,0.961,0.452,1.441,1.358,1.441c0.89,0,1.334-0.464,1.334-1.391
			V10.425h7.75v31.573H125.524z"/>
		<path fill="#FFFFFF" d="M112.976,45.434c-2.164,0-4.091-0.6-5.724-1.777c-1.91-1.379-2.922-3.313-2.922-5.602V7.425h24.192v37.573
			h-12.065C115.424,45.289,114.263,45.434,112.976,45.434z M110.33,13.425v24.629c0,0.264,0.028,0.443,0.435,0.736
			c0.601,0.434,1.321,0.643,2.211,0.643c0.159,0,0.313-0.002,0.453-0.008c-0.849-0.789-1.349-1.949-1.349-3.328V13.425H110.33z
			 M120.774,38.998h1.75V13.425h-1.75V38.998z"/>
	</g>
	<g>
		<path fill="#FFFFFF" d="M127.435,31.008h7.754v4.979c0,1.068,0.435,1.605,1.306,1.605s1.307-1.023,1.307-3.072
			c0-2.666-0.536-4.389-1.604-5.168c-4.043-2.121-6.481-3.604-7.315-4.443c-0.834-0.843-1.25-2.108-1.25-3.796v-4.241
			c0-4.441,3.009-6.663,9.027-6.663c5.856,0,8.784,2.131,8.784,6.392v4.521h-7.562l0.164-2.073c0-2.629-0.479-3.943-1.44-3.943
			s-1.44,0.825-1.44,2.476c0,1.706,0.213,2.99,0.64,3.861c0.428,0.87,2.797,2.366,7.11,4.487c1.795,1.289,2.692,2.992,2.692,5.113
			v4.73c0,4.443-3.062,6.664-9.18,6.664c-5.992,0-8.988-2.131-8.988-6.393v-5.037L127.435,31.008L127.435,31.008z"/>
		<path fill="#FFFFFF" d="M136.422,45.434c-10.817,0-11.987-6.564-11.987-9.391v-8.037h3.496c-0.584-0.422-0.937-0.734-1.188-0.99
			c-1.404-1.42-2.117-3.406-2.117-5.903V16.87c0-2.905,1.172-9.663,12.026-9.663c10.638,0,11.785,6.566,11.785,9.392v7.521h-2.981
			c2.063,1.795,3.146,4.168,3.146,6.92v4.73C148.604,38.678,147.416,45.434,136.422,45.434z M133.433,13.518
			c-2.808,0.673-2.808,2.29-2.808,3.353v4.241c0,0.813,0.146,1.442,0.383,1.686c0.154,0.156,1.197,1.077,6.578,3.897l0.373,0.234
			c1.91,1.393,2.838,3.875,2.838,7.59c0,2.297-0.526,3.734-1.237,4.631c3.043-0.67,3.043-2.369,3.043-3.379v-4.73
			c0-1.08-0.381-1.854-1.267-2.543c-5.978-2.955-7.553-4.35-8.231-5.738c-0.638-1.299-0.942-2.994-0.942-5.181
			C132.158,15.702,132.674,14.388,133.433,13.518z M130.435,34.008v2.035c0,0.92,0,2.455,2.806,3.098
			c-0.64-0.746-1.052-1.789-1.052-3.15v-1.98L130.435,34.008L130.435,34.008z M141.021,18.119h1.42v-1.521
			c0-0.999,0-2.526-2.82-3.131C140.358,14.374,140.903,15.832,141.021,18.119z"/>
	</g>
	<g>
		<path fill="#FFFFFF" d="M155.101,8.684h-7.752V3h7.752V8.684z M155.101,41.998h-7.752V10.425h7.752V41.998z"/>
		<path fill="#FFFFFF" d="M158.101,44.998h-13.752V0h13.752V44.998z M150.349,38.998h1.752V13.425h-1.752V38.998z"/>
	</g>
	<g>
		<path fill="#FFFFFF" d="M175.125,24.404h-7.752v-7.751c0-1.031-0.437-1.55-1.308-1.55c-0.892,0-1.33,0.519-1.33,1.55v19.335
			c0,1.068,0.438,1.605,1.33,1.605c0.871,0,1.308-0.535,1.308-1.605v-7.641h7.752v7.695c0,4.262-2.981,6.393-8.946,6.393
			c-6.13,0-9.193-2.223-9.193-6.664V16.871c0-4.441,3.063-6.663,9.193-6.663c5.965,0,8.946,2.131,8.946,6.392V24.404z"/>
		<path fill="#FFFFFF" d="M166.176,45.434c-11.004,0-12.19-6.758-12.19-9.662V16.87c0-2.905,1.188-9.663,12.19-9.663
			c10.783,0,11.947,6.566,11.947,9.392v19.444C178.123,38.867,176.959,45.434,166.176,45.434z M170.371,31.348v4.641
			c0,1.271-0.388,2.357-1.06,3.158c2.812-0.637,2.812-2.18,2.812-3.104v-4.697h-1.752V31.348z M162.787,13.549
			c-2.806,0.705-2.806,2.338-2.806,3.321V35.77c0,0.979,0,2.604,2.767,3.313c-0.646-0.795-1.015-1.859-1.015-3.096V16.653
			C161.735,15.408,162.119,14.338,162.787,13.549z M170.371,21.404h1.752v-4.805c0-0.928,0-2.479-2.853-3.112
			c0.694,0.795,1.101,1.891,1.101,3.167V21.404z"/>
	</g>
</g>
<g>
	<path fill="#1258A4" d="M24.051,42.27h-8.567c-0.924-1.104-1.387-4.242-1.387-9.408v-0.055l0.055-2.338
		c0.054-3.246,0.081-4.904,0.081-4.979c0-1.32-0.889-1.982-2.665-1.982v18.711H3.001v-39h10.58c2.411,0,4.51,0.554,6.296,1.659
		c1.786,1.104,2.679,2.854,2.679,5.249v4.677c0,3.029-1.768,5.078-5.304,6.146c3.554,0.836,5.33,2.982,5.33,6.445l-0.135,4.271
		C22.447,37.902,22.981,41.438,24.051,42.27z M14.206,16.702v-6.437c0-1.363-0.879-2.045-2.638-2.045v10.552
		C13.327,18.774,14.206,18.083,14.206,16.702z"/>
	<path fill="#1258A4" d="M43.557,28.836h-10.39v7.369c0,1.068,0.445,1.604,1.333,1.604c0.87,0,1.306-0.535,1.306-1.604v-4.654h7.751
		v4.709c0,4.262-3.038,6.393-9.11,6.393c-6.021,0-9.029-2.223-9.029-6.664V17.087c0-4.441,3.009-6.663,9.029-6.663
		c6.072,0,9.11,2.131,9.11,6.392V28.836z M35.806,24.105v-7.232c0-1.033-0.435-1.552-1.306-1.552c-0.888,0-1.333,0.519-1.333,1.552
		v7.232H35.806z"/>
	<path fill="#1258A4" d="M63.852,42.219h-6.853v-1.227c-0.58,1.105-2.239,1.658-4.978,1.658c-4.224,0-6.336-1.648-6.336-4.947v-6.34
		c0-1.412,0.512-2.645,1.536-3.697c1.024-1.053,3.087-2.363,6.188-3.941c1.796-0.906,2.692-1.632,2.692-2.177V16.87
		c0-1.033-0.444-1.552-1.333-1.552c-1.015,0-1.523,1.262-1.523,3.78c0,0.454,0.027,1.124,0.082,2.013
		c0.072,0.89,0.109-0.147,0.109,0.306h-7.479v-4.603c0-4.26,3.083-6.392,9.248-6.392c5.765,0,8.647,2.221,8.647,6.663V42.219z
		 M56.101,36.314v-8.131c-1.777,0.438-2.665,1.232-2.665,2.395v5.736c0,0.961,0.462,1.441,1.387,1.441
		C55.675,37.758,56.101,37.275,56.101,36.314z"/>
	<path fill="#1258A4" d="M73.758,42.219h-7.752v-39h7.752V42.219z"/>
</g>
<path fill="#28316E" d="M105.72,42.219h-7.644V20.325l-4.46,21.894h-5.901l-5.112-21.894v21.894h-6.688v-39h11.014l3.917,20.233
	l3.397-20.233h11.478v39H105.72z"/>
<path fill="#28316E" d="M125.959,42.219h-7.75v-1.064c-1,0.998-2.603,1.498-4.801,1.498c-1.525,0-2.851-0.402-3.968-1.211
	c-1.119-0.807-1.678-1.861-1.678-3.17V10.643h7.752v25.671c0,0.961,0.453,1.441,1.358,1.441c0.89,0,1.332-0.463,1.332-1.387V10.643
	h7.752L125.959,42.219L125.959,42.219z"/>
<path fill="#28316E" d="M127.867,31.225h7.754v4.98c0,1.068,0.435,1.604,1.305,1.604c0.871,0,1.308-1.023,1.308-3.074
	c0-2.664-0.537-4.387-1.604-5.166c-4.043-2.121-6.481-3.604-7.315-4.445c-0.834-0.843-1.25-2.107-1.25-3.793v-4.243
	c0-4.441,3.008-6.663,9.026-6.663c5.854,0,8.785,2.131,8.785,6.392v4.521h-7.562l0.162-2.073c0-2.629-0.479-3.943-1.44-3.943
	s-1.438,0.825-1.438,2.476c0,1.706,0.213,2.992,0.639,3.862c0.427,0.869,2.798,2.365,7.111,4.486
	c1.795,1.287,2.692,2.992,2.692,5.111v4.73c0,4.441-3.062,6.664-9.183,6.664c-5.991,0-8.987-2.131-8.987-6.393L127.867,31.225
	L127.867,31.225z"/>
<path fill="#28316E" d="M155.533,8.902h-7.75V3.218h7.75V8.902z M155.533,42.219h-7.75V10.643h7.75V42.219z"/>
<path fill="#28316E" d="M175.558,24.621h-7.752V16.87c0-1.033-0.437-1.552-1.306-1.552c-0.892,0-1.332,0.519-1.332,1.552v19.335
	c0,1.068,0.44,1.604,1.332,1.604c0.869,0,1.306-0.535,1.306-1.604v-7.643h7.752v7.697c0,4.262-2.981,6.393-8.947,6.393
	c-6.129,0-9.19-2.223-9.19-6.664V17.087c0-4.441,3.063-6.663,9.19-6.663c5.966,0,8.947,2.131,8.947,6.392V24.621z"/>
</svg>
